<svg xmlns="http://www.w3.org/2000/svg" width="32" height="32" viewBox="0 0 32 32">
  <g fill="none">
    <path fill="#0097FB" d="M18.2556043,24.4507316 L21.0586508,30.0568247 C19.3421205,30.7101841 17.4798322,31.0679612 15.5339806,31.0679612 C7.47907091,31.0679612 0.856077161,24.9372003 0.076699406,17.0873786 L6.34245971,17.0873786 C7.0819985,21.495477 10.9157339,24.8543689 15.5339806,24.8543689 C16.4807972,24.8543689 17.3946394,24.7131888 18.2556043,24.4507316 Z M24.4507316,18.2556043 C24.7131888,17.3946394 24.8543689,16.4807972 24.8543689,15.5339806 C24.8543689,10.9157339 21.495477,7.0819985 17.0873786,6.34245971 L17.0873786,0.076699406 C24.9372003,0.856077161 31.0679612,7.47907091 31.0679612,15.5339806 C31.0679612,17.4798322 30.7101841,19.3421205 30.0568247,21.0586508 L24.4507316,18.2556043 Z M6.34245971,13.9805825 L0.076699406,13.9805825 C0.805349704,6.64168318 6.64168318,0.805349704 13.9805825,0.076699406 L13.9805825,6.34245971 C10.0776623,6.99724565 6.99724565,10.0776623 6.34245971,13.9805825 Z"/>
    <path fill="#95D0F9" d="M19.0074842,19.0074842 L25.4645084,31.9215325 C28.1006484,30.3203769 30.3203769,28.1006484 31.921532,25.4645093 L19.0074842,19.0074842 Z"/>
  </g>
</svg>
