<?xml version="1.0" encoding="UTF-8"?>
<svg width="32px" height="32px" viewBox="0 0 32 32" version="1.1" xmlns="http://www.w3.org/2000/svg" xmlns:xlink="http://www.w3.org/1999/xlink">
    <!-- Generator: Sketch 50.2 (55047) - http://www.bohemiancoding.com/sketch -->
    <title>app-icon</title>
    <desc>Created with Sketch.</desc>
    <defs></defs>
    <g id="app-icon" stroke="none" stroke-width="1" fill="none" fill-rule="evenodd">
        <path d="M17,0 L20.3372571,4.4408921e-16 C21.3716272,2.54078505e-16 22.3330369,0.53285909 22.881252,1.41000318 L31.006252,14.4100032 C31.6142588,15.382814 31.6142588,16.617186 31.006252,17.5899968 L22.881252,30.5899968 C22.3330369,31.4671409 21.3716272,32 20.3372571,32 L17,32 C15.4694874,32 14.2287618,30.7592744 14.2287618,29.2287618 C14.2287618,28.7093771 14.3747214,28.2004458 14.6499947,27.7600085 L21.006252,17.5899968 C21.6142588,16.617186 21.6142588,15.382814 21.006252,14.4100032 L14.6499947,4.23999152 C13.8388246,2.94211943 14.2333746,1.23240296 15.5312467,0.421232908 C15.971684,0.145959578 16.4806153,9.54094178e-17 17,0 Z" id="Rectangle-5" fill="#4D9EE0"></path>
        <path d="M5,0 L8.33725708,1.33226763e-15 C9.37162717,1.14225692e-15 10.3330369,0.53285909 10.881252,1.41000318 L19.006252,14.4100032 C19.6142588,15.382814 19.6142588,16.617186 19.006252,17.5899968 L10.881252,30.5899968 C10.3330369,31.4671409 9.37162717,32 8.33725708,32 L5,32 C3.4694874,32 2.22876179,30.7592744 2.22876179,29.2287618 C2.22876179,28.7093771 2.37472137,28.2004458 2.6499947,27.7600085 L9.00625199,17.5899968 C9.61425877,16.617186 9.61425877,15.382814 9.00625199,14.4100032 L2.6499947,4.23999152 C1.83882464,2.94211943 2.2333746,1.23240296 3.53124669,0.421232908 C3.97168401,0.145959578 4.48061532,9.54094178e-17 5,0 Z" id="Rectangle-5-Copy" fill="#E97F8D"></path>
    </g>
</svg>