<svg xmlns="http://www.w3.org/2000/svg" width="32" height="32" viewBox="0 0 32 32">
  <g fill="none" fill-rule="evenodd">
    <path fill="#6C63FF" d="M31.2156134,27.58828 C29.2527881,29.739777 27.0326088,30.8530443 24.8075893,31.311828 C22.5825699,31.7706116 20.313084,32 17.9990638,32 C15.5367089,32 13.2672231,31.6272439 11.1905382,30.8817204 C9.1138534,30.136197 7.31903128,29.0681073 5.80601803,27.6774194 C4.29300479,26.2867314 3.11376216,24.6021604 2.26825476,22.6236559 C1.42274736,20.6451514 1,18.4372882 1,16 C1,13.5627118 1.42274736,11.3548486 2.26825476,9.37634409 C3.11376216,7.39783957 4.29300479,5.7132686 5.80601803,4.32258065 C7.31903128,2.93189269 9.1138534,1.86380301 11.1905382,1.11827957 C13.2672231,0.372756129 15.5367089,4.54747351e-13 17.9990638,4.54747351e-13 C20.5207525,4.54747351e-13 22.8421547,0.293903871 24.9633399,0.88172043 L22.4490805,6.92473118 C21.2624034,6.43727355 19.7790794,6.19354839 17.9990638,6.19354839 C16.5157175,6.19354839 15.1733092,6.43727355 13.9717987,6.92473118 C12.7702882,7.41218882 11.7393779,8.09318559 10.8790371,8.96774194 C10.0186962,9.84229828 9.358617,10.8817144 8.89877964,12.0860215 C8.43894228,13.2903286 8.20902705,14.5949751 8.20902705,16 C8.20902705,17.4336989 8.43894228,18.7455138 8.89877964,19.9354839 C9.358617,21.125454 10.0186962,22.1577017 10.8790371,23.0322581 C11.7393779,23.9068144 12.7702882,24.5878112 13.9717987,25.0752688 C15.1733092,25.5627265 16.5157175,25.8064516 17.9990638,25.8064516 C19.512077,25.8064516 20.8174022,25.6415787 21.9150785,25.311828 C23.0127548,24.9820772 23.887916,24.645163 24.5405883,24.3010753 L24.5405883,19.8418276 L18.8890671,19.8418276 L18.8890671,13.6482792 L31.2156134,13.6482792 L31.2156134,27.58828 Z"/>
    <circle cx="28" cy="8.5" r="3" fill="#FBD56F" fill-rule="nonzero"/>
  </g>
</svg>
