<svg xmlns="http://www.w3.org/2000/svg" width="32" height="32" viewBox="0 0 32 32">
  <g fill="none" fill-rule="evenodd" transform="translate(6 2)">
    <path fill="#6C63FF" stroke="#715EFF" stroke-width="2.719" d="M2.82,22.8657627 C3.5933372,23.8881407 4.5999938,24.7073416 5.84,25.3233898 C7.0800062,25.9394381 8.4599924,26.2474576 9.98,26.2474576 C11.31334,26.2474576 12.446662,26.057403 13.38,25.6772881 C14.313338,25.2971732 15.0666638,24.7794383 15.64,24.1240678 C16.2133362,23.4686973 16.6266654,22.7019253 16.88,21.8237288 C17.1333346,20.9455323 17.26,20.0083666 17.26,19.0122034 L17.26,15.7091525 L17.18,15.7091525 C16.3266624,16.9674639 15.2866728,17.8587544 14.06,18.3830508 C12.8333272,18.9073473 11.5400068,19.1694915 10.18,19.1694915 C8.8199932,19.1694915 7.5466726,18.9335617 6.36,18.4616949 C5.1733274,17.9898281 4.1400044,17.3410211 3.26,16.5152542 C2.3799956,15.6894874 1.6866692,14.6998928 1.18,13.5464407 C0.6733308,12.3929886 0.42,11.1478033 0.42,9.81084746 C0.42,8.47389162 0.6599976,7.22870633 1.14,6.07525424 C1.6200024,4.92180214 2.2799958,3.9125467 3.12,3.04745763 C3.9600042,2.18236856 4.9599942,1.50734706 6.12,1.02237288 C7.2800058,0.537398705 8.5533264,0.294915254 9.94,0.294915254 C10.5000028,0.294915254 11.0933302,0.347344108 11.72,0.45220339 C12.3466698,0.557062671 12.9733302,0.740563661 13.6,1.00271186 C14.2266698,1.26486007 14.8466636,1.62530844 15.46,2.0840678 C16.0733364,2.54282715 16.646664,3.12609816 17.18,3.83389831 L17.26,3.83389831 L17.26,0.766779661 L19.9,0.766779661 L19.9,19.0122034 C19.9,20.0083666 19.7733346,21.0700509 19.52,22.1972881 C19.2666654,23.3245254 18.773337,24.3599953 18.04,25.3037288 C17.306663,26.2474623 16.2866732,27.0338952 14.98,27.6630508 C13.6733268,28.2922065 11.9666772,28.6067797 9.86,28.6067797 C7.993324,28.6067797 6.326674,28.3053137 4.86,27.7023729 C3.393326,27.099432 2.060006,26.1688199 0.86,24.9105085 L2.82,22.8657627 Z"/>
    <g transform="translate(3 2.458)">
      <ellipse cx="7.25" cy="7.127" fill="#F0EFFF" rx="7.25" ry="7.127"/>
      <g fill="#444053" transform="translate(3.5 4.915)">
        <ellipse cx="1" cy=".983" rx="1" ry="1"/>
        <ellipse cx="6.5" cy=".983" rx="1" ry="1"/>
      </g>
      <path fill="#444053" d="M10,9.60728721 C10,10.3983661 8.58455421,11.3050847 7.19009115,11.3050847 C5.79562809,11.3050847 4.5,10.3683801 4.5,9.57716966 C4.5,8.78595922 5.80079278,10.2194273 7.19594358,10.2194273 C8.59109438,10.2194273 10,8.81607677 10,9.60728721 Z"/>
    </g>
  </g>
</svg>
