<svg xmlns="http://www.w3.org/2000/svg" width="32" height="32" viewBox="0 0 32 32">
  <g fill="none">
    <path fill="#E97F8D" d="M9.51777465,16.2466897 L0.175070531,0.994177336 C-0.0133226954,0.686614346 0.0832834855,0.284562395 0.390846475,0.096169169 C0.493513314,0.0332820933 0.611566307,-4.21972772e-16 0.731962586,-4.4408921e-16 L8.87212189,6.66133815e-16 C9.10046789,6.24187335e-16 9.31223004,0.119267558 9.43059543,0.314540519 L19.1932476,16.4204474 C19.3248603,16.6375749 19.3186959,16.911304 19.1774421,17.1222866 L9.43391953,31.6756281 C9.31269533,31.8566938 9.10915071,31.9653708 8.89125148,31.9653708 L0.781490656,31.9653708 C0.420814901,31.9653708 0.128429431,31.6729854 0.128429431,31.3123096 C0.128429431,31.1841195 0.16615632,31.0587641 0.236907935,30.9518674 L9.50546532,16.9482481 C9.64551776,16.7366465 9.65031778,16.4630741 9.51777465,16.2466897 Z"/>
    <path fill="#4D9EE0" d="M22.2172372,16.2466897 L12.8745331,0.994177336 C12.6861399,0.686614346 12.7827461,0.284562395 13.0903091,0.096169169 C13.1929759,0.0332820933 13.3110289,2.88879151e-14 13.4314252,2.88657986e-14 L21.5715845,2.88657986e-14 C21.7999305,2.88238522e-14 22.0116926,0.119267558 22.130058,0.314540519 L31.8927102,16.4204474 C32.0243229,16.6375749 32.0181585,16.911304 31.8769047,17.1222866 L22.1333821,31.6756281 C22.0121579,31.8566938 21.8086133,31.9653708 21.5907141,31.9653708 L13.4809532,31.9653708 C13.1202775,31.9653708 12.827892,31.6729854 12.827892,31.3123096 C12.827892,31.1841195 12.8656189,31.0587641 12.9363705,30.9518674 L22.2049279,16.9482481 C22.3449803,16.7366465 22.3497804,16.4630741 22.2172372,16.2466897 Z"/>
  </g>
</svg>
